<?xml version="1.0" encoding="utf-8"?>
<!-- Generator: Adobe Illustrator 17.0.0, SVG Export Plug-In . SVG Version: 6.00 Build 0)  -->
<!DOCTYPE svg PUBLIC "-//W3C//DTD SVG 1.1//EN" "http://www.w3.org/Graphics/SVG/1.1/DTD/svg11.dtd">
<svg version="1.1" id="Layer_1" xmlns="http://www.w3.org/2000/svg" xmlns:xlink="http://www.w3.org/1999/xlink" x="0px" y="0px"
	 width="475.476px" height="310.484px" viewBox="0 0 475.476 310.484" enable-background="new 0 0 475.476 310.484"
	 xml:space="preserve">
<g>
	<g>
		<path d="M1002.889,207.294c0,17.613-0.001,35.226-0.001,52.838c0,0.469,2.396,0.684,2.396,0.51
			c0-17.614,0.001-35.226,0.001-52.838C1005.286,207.335,1002.889,207.121,1002.889,207.294L1002.889,207.294z"/>
	</g>
</g>
<g>
	<g>
		<path fill="#414042" d="M172.017,57.735l0.167-0.332l-0.167-0.416h-0.166l-0.165,0.249l0.165,0.417L172.017,57.735z
			 M149.988,70.539h0.582l-0.249-0.582h-0.333L149.988,70.539L149.988,70.539z M147.16,77.272l0.333-0.582l-0.414-0.165
			l-0.334,0.414l0.166,0.25L147.16,77.272z M150.154,89.74l2.66-0.746l2.41-0.998l2.329-1.332l1.081-0.331v-0.25h0.416v-0.167h0.331
			l2.163-1.746l0.831-0.499l1.913-1.829l1.83-1.911l1.579-1.996l0.25-0.167l0.831-1.663l0.416-0.165l0.166-0.583l0.5-0.499
			l0.165-0.996l0.499-0.501l0.249-1.328l0.582-0.831l0.665-1.996l0.167-1.33l0.417-1.331v-3.326l-0.25-0.249l-0.167-1.332
			l-0.664-0.998l-0.083-0.497l-1.913-1.165l-1.414-0.416h-1.246l-2.327,0.75l-1.581,0.998h-0.332l-1.996,1.744l-0.666,0.749h-0.414
			l-1.748,2.16l-0.331,0.251v0.417l-1.831,2.076l-0.333,0.834l-0.747,1.078l-0.334,0.748l-0.33,0.168v0.333l-0.334,0.167v0.414
			l-0.417,0.167v0.417h-0.165v0.33l-0.249,0.085l-0.998,2.495l-1.163,2.41l-1.082,2.326l-0.996,2.578l-1.165,2.327l-0.832,2.328
			l-0.499,1.247l-0.165,1.249l0.165,0.33l0.665,0.416l1.33,0.168l1.996-0.584h0.166V89.74z M143.005,86.915h0.414V86.5h-0.414
			V86.915z M142.09,90.822l-0.333-0.416l-0.331,0.169l-0.085,0.662l1.33,0.333l0.25,0.498l0.831,0.085l0.083-0.416l-0.332-0.582
			l-1.247-0.333H142.09z M140.926,88.91l-0.331,0.084l0.08,0.665l0.333,0.082l0.666-0.663l0.249,0.082v-0.913l-0.249-0.085
			l-0.249,0.666l-0.334,0.333v-0.166L140.926,88.91z M139.597,93.815l0.166,0.666l0.582,0.332h0.331l0.417-0.417l-0.083-0.249
			l-0.915-0.5l-0.332,0.085L139.597,93.815z M138.349,96.143l0.915,0.749h0.499l0.25-0.584l-0.25-0.165h-0.666l-0.581-1.164h-0.167
			L138.349,96.143L138.349,96.143z M137.019,101.961l0.582,0.167l0.748-0.749l-0.333-0.166l-0.664,0.083l-0.332,0.499v0.166H137.019
			z M135.522,117.922h0.332v-0.333h-0.332V117.922z M133.194,106.618l0.75,0.25v-0.582l-0.665,0.167L133.194,106.618z
			 M132.446,118.672l0.833-0.084l-0.333-0.415h-0.333l-0.166,0.249v0.25H132.446z M129.621,114.765l0.747,0.166v-0.416l-0.25-0.165
			l-0.33,0.082L129.621,114.765z M129.287,113.767l0.334-0.915l-0.334-0.166l-0.25,0.082l-0.166,0.666l0.166,0.333H129.287z
			 M127.958,116.093l0.665,1.082l0.083,0.416h0.331l0.417-0.416l-0.083-0.665h-0.748l-0.084-0.249l0.498-0.417l0.083-0.333h-0.166
			l-0.416-0.415h-0.165l-0.416,0.748L127.958,116.093L127.958,116.093z M114.573,111.19l-0.165,0.333h-0.417l-0.581,0.749
			l-0.998,0.913l-0.084,0.417l-0.333,0.166l-0.33,0.915v1.497l1.081,2.329l1.08,1.08l2.495,0.664l2.243,0.168l0.167-0.25
			l0.997-0.083l1.08-0.748l1.331-0.501l1.912-1.743l0.748-0.832l0.167-0.666l-0.083-0.581l-0.748-1.082l-2.08-1.747l-1.579-0.913
			l-0.915-0.166l-0.083-0.168l-2.744-0.165h-1.245l-0.751,0.333L114.573,111.19z M137.019,125.489l-1.082-0.748l-1.744-1.996
			l-1-0.831l-1.247-0.749l-0.914-0.249l-1.245,0.499l-0.917,0.998l-1.579,1.247l-0.5,0.082l-0.083,0.333l-0.831,0.25l-0.416,0.331
			l-1.247,0.5h-0.334l-2.328,1.08l-2.575,0.249l-1.248,0.25h-1.33l-2.744-0.499l-1.829-0.499l-0.996-0.665l-0.583-0.167
			l-0.333-0.499l-0.583-0.167l-0.997-0.997l-0.583-0.332l-0.498-0.831l-0.417-0.167l-0.082-0.583l-1.082-2.326l-0.416-2.495
			l0.084-2.827l0.083-0.499l0.166-0.167v-0.581l0.583-1.247l0.333-0.998l0.914-0.915v-0.25l1.995-1.744l0.997-0.666l1.332-0.499
			l0.416-0.414l1.246-0.501l0.249-0.249l2.329-0.25l2.91-0.25l1.996,0.666l2.575,0.499l2.412,1.163l2.245,1.497l1.163,0.167
			l0.581-0.332l0.333-0.749l0.417-0.332l0.081-0.581l0.75-1.249l0.914-2.328l0.749-1.745l0.498-0.498l0.167-1.331l1.081-2.661
			v-0.915l-0.831-0.998l-1.164-0.497l-0.416-0.416l-0.666-0.083l-0.249-0.25h-0.583l-0.331-0.416l-1.082-0.332l-1.163-0.581
			l-0.416-0.501l-0.666-0.249l-1.913-1.746l-0.916-0.996l-0.748-0.584l-0.164-0.498l-0.833-0.917v-0.331l-1.165-1.331l-0.082-0.748
			l-0.416-0.5l-0.833-2.244l-0.581-2.244l-0.499-2.91l0.166-2.493v-1.332l0.582-2.577l0.75-2.495l0.998-1.911l0.331-0.915
			l0.749-0.748l0.25-0.581l0.498-0.334l0.166-0.582l1.665-1.995l1.829-1.831l0.997-0.831l1.33-0.499l1.165,0.085l0.166,0.414h0.332
			l0.831,0.749v0.331l0.333,0.167l0.083,0.5l0.582,0.414l0.083,0.666l0.165,0.166V61.3l-0.663,1.082l-1.996,1.913l-0.667,0.747
			l-1.494,2.162l-0.833,0.998v0.416h-0.167v0.332h-0.167v0.415h-0.163l-0.748,2.328l-0.667,2.744l-0.165,1.247l0.249,1.163
			l0.084,1.332l0.831,2.494l0.25,0.58l0.498,0.501l0.333,0.998l0.666,1.162l1.911,1.831l2.161,1.662l0.583,0.414l0.581,0.169
			l0.334,0.416l0.581,0.082l0.582,0.416l1.331,0.25l0.747-0.582l0.583-0.166l0.749-2.328l0.665-1.081l0.249-0.748l0.415-0.416
			l0.083-0.666l0.251-0.249l0.167-1.163h0.166l0.333-1.249l0.748-1.245l0.083-0.5l0.583-0.998l0.414-1.412l1.249-2.246L145,71.619
			l0.166-0.581l0.499-0.333l0.167-0.581l0.416-0.167l0.831-2.327l0.748-0.916l0.083-0.332l0.913-1.164v-0.332h0.25l1.332-2.412
			l0.247-0.749l1.746-2.078l1.081-1.497l1.082-0.915l0.831-0.998l0.997-0.748l0.333-0.416h0.333l2.163-1.66l0.581-0.417h0.25
			l2.326-1.08l1.499-0.582l1.329-0.25h2.66l2.744,0.167l1.247,0.084l0.166,0.167l1.332,0.331l0.165,0.25l1.165,0.497l2.078,1.499
			l0.748,0.581l0.083,0.499l0.25,0.165l0.332,0.668l0.416,0.414v0.333h0.167l0.083,0.498l0.999,1.746l0.497,2.413l0.167,1.08
			l-0.083,3.076l-0.501,2.661l-0.497,2.576l-0.915,2.577l-0.831,1.996l-0.416,0.414v0.334l-0.416,0.417l-0.167,0.581l-0.33,0.167
			v0.415l-0.417,0.333l-0.084,0.581l-0.499,0.5l-0.582,1.08l-0.665,0.666l-1.08,1.662l-0.416,0.998l-0.584,0.332l-0.166,0.583
			l-1.994,1.829L167.696,88l-2.244,1.495l-0.25,0.416h-0.332l-0.165,0.334h-0.334l-0.915,0.915l-0.831,0.249l-0.584,0.416
			l-0.663,0.167l-1.081,0.664l-0.747,0.25l-0.333,0.416l-0.998,0.082l-2.414,0.915l-2.575,0.831l-2.411,0.333l-0.665,0.082
			l-0.167,0.167l-2.744,0.252l-1.331-0.085l-1.247,0.167l-0.332,0.247l-0.583,0.085l-1.082,0.832l-1.08,2.328l-0.165,0.581
			l-0.25,0.25l-0.75,2.328l-0.414,1.329l-1.246,2.911l-0.417,0.581l-0.333,1.249l-0.497,0.498l-0.084,0.581l-0.998,1.831
			l-0.083,0.497l-0.331,0.416l-0.333,1.414l0.083,0.334l0.499,0.415l0.165,0.581l0.334,0.167l0.748,0.831l0.582,0.25l0.748,0.997
			l1.996,1.748l1.911,1.91l1.912,1.746l0.832,1.081l1.081,0.75l1.913,1.827l0.497,0.332l0.417,0.582l0.831,0.416l0.833,0.997
			l1.08,0.75l0.666,0.746l2.16,1.413l1.248,1.082h0.334v0.25h0.414v0.165l2.079,0.581v0.168h0.331v0.165l2.163,0.748l1.249,0.332
			l1.495,0.168l0.583-0.25h0.582l0.498-0.334l1.33-0.249l2.328-1.33l1.249-0.666l1.91-1.662l0.166-0.332l1.829-0.831l1.414,0.831
			h0.333l0.416,0.415l0.25,0.582l0.913,0.915l0.749,1.081l0.167,0.581l-0.334,1.248l-0.748,0.997l-2.247,1.579l-0.497,0.499h-0.334
			l-0.996,0.748l-0.334,0.416l-0.497,0.085l-2.078,1.081l-0.666,0.166l-0.998,0.666l-0.666,0.082l-0.831,0.333l-2.577,0.416
			l-1.248,0.166l-2.493-0.166l-2.08-0.666l-2.41-0.915l-1.245-0.498l-1.998-1.247l-1.493-0.666l-2.08-1.579l-0.584-0.249
			l-0.165-0.25l-0.333-0.083l-0.416-0.416h-0.332l-1.166-1.082l-0.25-0.249h-0.249l-1.995-1.996l-1.996-1.744l-1.912-1.831
			l-1.993-1.745l-1.747-1.747v-0.171L137.019,125.489L137.019,125.489z"/>
		<path fill="#414042" d="M185.75,89.492l-0.142,0.207l-0.969,0.208l-0.138,0.207h-0.276l-0.138,0.347l-0.417,0.071l-1.524,1.66
			l-0.623,0.764l-0.07,0.417l-0.692,0.9l-0.416,0.829l-0.555,0.693v0.278l-0.764,1.108l-0.067,0.414l-0.969,1.666l-0.833,2.007
			l-0.138,0.831l0.762,0.831l1.178,0.14l2.286-0.278l0.831-0.138l1.802-1.316l1.729-1.317l0.626-0.9l0.138-0.553l1.247-1.942
			l0.763-2.009l0.901-2.286l0.138-1.04l-0.208-0.276v-0.278l-0.9-1.384l-2.216,0.069l-0.279,0.069h-0.067L185.75,89.492
			L185.75,89.492z M186.235,84.019l0.207-0.139l2.218-0.069l0.761,0.069l0.139,0.139h0.484l1.942,0.831l1.038,0.762v0.276
			l1.178,1.664l0.485,1.04l0.209,2.007l-0.209,2.289l-0.277,2.146l-0.623,1.662l-0.554,0.9l-0.9,1.941l-0.139,0.484l-1.456,1.733
			l-0.694,0.831l-0.413,0.207l-0.765,0.832l-1.106,0.694l-0.416,0.069v0.208l-0.484,0.069l-0.556,0.485l-0.348,0.068v0.138
			l-1.383,0.485l-0.417,0.208l-2.287,0.276l-2.424,0.208h-2.355l-0.9,0.208l-0.693,0.416l-0.622,0.9l-0.208,1.385l-0.207,0.14
			l-0.141,0.902l0.071,2.423l0.208,1.108l0.416,1.04l0.693,0.902l0.831,0.693l0.484,0.138l0.138,0.276l0.486,0.071l0.346,0.207
			l2.424,0.208l1.94-0.347l0.969-0.278l0.208-0.207l1.178-0.346l0.276-0.346l0.484-0.139l0.764-0.625l1.731-0.831l0.9-0.485
			l1.525-1.593l1.595-1.524l1.523-1.664l1.387-1.731l1.454-1.662l0.209-0.138l0.067-0.416l0.278-0.138v-0.347l0.347-0.138
			l0.416-1.042l1.038-1.385h1.177l0.554,0.207l0.694,0.831l0.206,0.484v0.557l-0.415,0.969l-0.417,0.416l-0.068,0.485l-0.692,0.9
			l-0.14,0.484l-0.485,0.347l-0.068,0.278l-0.832,0.9l-0.208,0.693l-0.623,0.901l-1.457,1.593l-1.591,1.663l-0.902,0.624l-0.76,0.9
			l-0.762,1.109h-0.348l-0.138,0.278l-1.107,0.484l-0.138,0.347l-0.417,0.069l-1.455,1.316l-1.038,0.416l-0.209,0.207h-0.346
			l-0.347,0.417l-0.693,0.138l-0.208,0.208l-1.383,0.485l-1.042,0.138l-0.623,0.277l-2.146,0.347l-2.357,0.071l-2.286-0.277
			l-2.011-0.695l-1.938-0.9l-1.247-1.109v-0.345l-0.346-0.14v-0.345l-0.278-0.14l-0.831-1.8l-0.207-2.357l-0.14-2.078l0.07-2.357
			l0.416-3.324l0.347-0.761l0.485-2.288l0.069-0.346l0.207-0.069l0.555-2.078l0.276-0.278v-0.276l0.346-0.346l0.557-0.969v-0.279
			h0.138l0.138-0.831l0.347-0.416l0.414-0.969l0.347-0.417l0.07-0.345h0.139v-0.347h0.137v-0.277l1.249-1.8l0.484-0.557l0.069-0.414
			l0.416-0.416v-0.277l0.415-0.347l0.069-0.207l0.762-0.763l0.208-0.484l1.731-1.525l1.317-1.317l0.484-0.067l0.9-0.626l0.693-0.276
			l0.278-0.348l0.486-0.138l0.346-0.347l2.076-0.484l0.417-0.138h0.14L186.235,84.019L186.235,84.019z"/>
		<path fill="#414042" d="M218.449,103.279v-0.624l-0.347,0.07l-0.138,0.207l0.275,0.347H218.449z M215.469,115.817v0.277
			l0.209,0.207h0.416v-0.347l-0.14-0.207l-0.347-0.069l-0.068,0.138L215.469,115.817L215.469,115.817z M213.116,111.798l0.138,0.069
			l0.275-0.138l0.209-0.485l-0.209-0.415h-0.137l-0.07,0.277l-0.347,0.345v0.208L213.116,111.798z M204.593,116.026l0.207-0.209
			l0.486-0.069l0.345-0.347l0.556-0.208l0.349-0.344l1.383-0.763l0.138-0.277l0.488-0.138l1.385-1.733l0.831-0.831v-0.277
			l0.276-0.139l0.07-0.417l0.275-0.069l0.07-0.484l0.624-1.038l0.833-2.08l0.899-2.009l0.555-1.04l0.693-2.078l0.831-2.08
			l0.832-1.939l0.692-2.078l0.208-1.178v-1.593l0.208-0.762l-0.346-1.038l-1.524-1.108l-0.97-0.28h-1.108l-1.94,0.626l-0.277,0.069
			l-0.138,0.347h-0.347l-1.662,1.592l-0.069,0.417l-1.317,1.385l-0.138,0.484l-0.485,0.417l-0.417,0.972l-0.414,0.691l-0.07,0.484
			l-1.178,1.94l-0.209,0.693l-0.553,0.9l-0.762,2.148l-0.207,0.693l-0.208,0.207l-0.069,0.555l-0.208,0.207v0.277l-0.555,0.83
			l-0.206,2.219v0.278l-0.209,0.138l-0.555,2.009l-0.484,2.078l-0.067,0.972h0.206l0.483,2.076l0.693,0.485l0.071,0.208l1.108,0.209
			C203.696,116.026,204.593,116.026,204.593,116.026z M200.989,102.379l-0.415-0.14l-0.07,0.278l0.279,0.138l0.206-0.138V102.379z
			 M227.038,86.374l0.209,0.485l-0.14,0.9l-0.553,1.384h-0.139v0.347h-0.141v0.348h-0.138v0.277l-0.484,0.831l-0.623,1.871h-0.138
			l-0.138,0.554l-0.973,1.939l-0.415,0.902l-0.485,1.938l-0.692,1.662l-0.345,0.347l-0.209,0.831l-0.416,0.417l-0.415,1.871
			l-0.417,0.691v0.346l-0.275,0.069v0.347h-0.139v0.277h-0.138v0.345h-0.14v0.279h-0.206v0.345h-0.139l-0.279,1.248h-0.138
			l-0.071,0.762l-0.689,1.731l-0.209,0.97l-0.417,0.969l-0.068,0.554h-0.139l-0.555,2.079v1.04l0.277,0.9l0.554,0.9l0.557,0.138
			l0.066,0.14l1.11-0.208l0.761-0.484l0.484-0.069l0.624-0.347l0.347-0.484h0.278l0.483-0.625l0.417-0.069l1.384-1.384l0.071-0.416
			l0.623-0.623l0.484-0.279l0.138-0.485l0.831-0.831v-0.277l1.595-1.525l0.692-0.9l0.208-0.693l0.345-0.207v-0.278l0.278-0.138
			v-0.279l0.347-0.208v-0.347l0.275-0.138v-0.347l0.347-0.138v-0.279l0.555-0.691l0.208-0.762l0.347-0.138v-0.278l0.347-0.347
			v-0.276l0.76-0.831l0.555-0.209l1.038,0.278l0.762,0.831l0.208,0.416l0.071,0.554l-0.349,1.108l-0.346,0.484l-0.069,0.485
			l-1.247,1.873l-0.761,1.315l-0.555,0.9l-1.178,1.524l-0.415,0.691l-0.693,0.626l-0.209,0.554l-1.593,1.524l-1.455,1.662
			l-1.663,1.455l-1.316,1.249l-0.416,0.068v0.208l-1.106,0.762h-0.278v0.139l-2.01,0.555l-2.147,0.553l-2.008-0.069l-1.524-0.622
			l-0.347-0.417l-0.483-0.139l-0.832-0.9l-1.108-1.872l-0.209-0.207l-0.346-0.069l-0.484,0.207l-1.385,1.18l-0.279,0.069
			l-0.347,0.416l-0.623,0.208l-0.275,0.345h-0.347v0.14l-0.485,0.207l-0.139,0.277h-0.346v0.139l-1.871,0.486l-1.87,0.415
			l-1.248,0.138l-1.109-0.208l-1.593-0.761l-1.248-1.246l-0.415-0.972h-0.208l-0.76-2.078l-0.28-2.216l0.142-2.148l0.138-1.108
			h0.138l0.275-1.94l0.28-1.106l0.067-1.042l0.208-0.138l0.485-1.871l0.693-2.285l0.762-2.15l0.209-0.9h0.207v-0.347h0.139v-0.275
			h0.139v-0.347h0.139v-0.277h0.206l0.209-1.038l0.416-0.9v-0.278h0.138l0.14-0.833l0.347-0.138v-0.278l0.208-0.14l0.067-0.345
			l0.347-0.14v-0.276l0.278-0.208v-0.347l0.414-0.276l0.556-1.108l0.067-0.485l1.456-1.524l0.207-0.486l0.416-0.416l1.04-1.731
			l1.04-1.04l0.485-0.138l0.276-0.484l0.831-0.348l0.417-0.415l0.417-0.07l1.939-0.76l0.9-0.209l2.357,0.071h0.9l1.87,0.968
			l0.901,0.763l1.107,1.731l0.625,0.969l0.485,0.278l1.038-0.138l1.387-0.693l0.553-0.554h0.277v-0.14l1.038-0.484l0.764-0.207
			l0.067-0.14l0.901-0.138l0.555,0.207L227.038,86.374z"/>
		<path fill="#414042" d="M243.873,107.781l0.208,0.138h0.553l-0.208-0.485l-0.415-0.138l-0.069,0.415L243.873,107.781z
			 M260.64,102.446l0.485,0.624l0.068,0.902l-0.207,0.9l-0.484,1.038l-0.486,0.624l-0.069,0.416l-0.761,0.831l-0.972,2.01
			l-0.208,0.485l-0.415,0.346l-0.208,0.485h-0.138l-1.18,1.871l-0.694,0.83l-0.347,0.762l-1.522,1.526l-1.039,1.593l-0.901,0.623
			l-0.347,0.416l-0.9,0.555l-0.831,0.762l-1.871,0.902l-0.208,0.276l-1.733,0.346h-2.425l-0.553-0.069l-1.319-0.695l-0.484-0.484
			l-0.484-0.276l-1.107-1.802v-0.276l-0.346-0.416l-0.209-0.971l0.069-2.356l0.277-2.354l0.347-1.593h0.209l0.275-1.873l0.209-0.138
			l0.208-0.831l0.485-0.831l0.76-2.146l0.21-0.762l0.969-2.011l0.484-0.762l0.069-0.484l0.347-0.416l0.346-1.315l0.692-2.08
			l0.071-0.624l-0.21-0.485l-0.208-0.137v-0.278l-0.346-0.138v-0.347l-0.278-0.138l-0.138-0.277l-0.347-0.069l-1.315-1.246
			l-0.416-0.139l-0.973,0.623l-0.827,2.009l-1.042,1.87l-1.176,1.802l-0.485,0.831l-0.347,1.178l-0.207,0.138l-0.416,0.762v0.347
			h-0.14v0.278h-0.208v0.345h-0.138v0.347l-0.209,0.069l-0.622,0.902l-0.483,0.346l-0.624,0.071l-1.179-0.901l-0.484-0.971
			l0.069-0.554l0.623-1.108l0.415-0.416l0.277-0.969l0.625-0.901l0.415-0.9l0.208-0.833l0.347-0.276l0.068-0.486l0.555-0.623
			l0.416-0.9l0.208-0.831l0.207-0.208l0.071-0.416h0.207l0.209-0.832l0.416-0.416l0.208-0.97l0.415-0.971l-0.207-1.106l-0.762-1.04
			l-0.069-0.416l-0.416-0.693l-0.208-2.009v-0.693l0.347-0.969l0.761-0.9l0.139-0.486l1.315-1.801l0.763-0.764l0.692-0.343
			l0.275-0.349l0.832-0.277l1.594,0.346l1.872,0.693l0.417,0.831l0.205,0.138l0.071,1.039l-0.137,1.109l-0.972,1.731l-0.693,2.08
			l0.14,1.04l0.831,1.108l0.417,0.069l1.521,1.591l1.664,1.524l0.415,0.349v0.207l1.109,1.246l0.624,1.317l0.07,2.562l-0.14,2.01
			l-0.9,1.938l-0.763,1.593l-0.068,0.626l-0.693,1.454l-0.069,0.415l-0.764,1.524l-0.137,0.763l-0.208,0.207l-0.76,1.941
			l-0.139,0.693l-0.276,0.345l-0.417,1.178l-0.414,2.078l-0.21,1.664l0.139,0.484l0.209,0.14l0.138,0.416l0.347,0.347l0.831,0.276
			l1.04-0.276l1.038-0.693l1.8-1.595l0.348-0.278v-0.346l1.454-1.661l1.248-1.802l0.208-0.207l0.07-0.415l0.969-0.9v-0.349h0.139
			v-0.277l0.624-0.9l1.041-1.939l0.414-0.9l0.417-0.347l0.07-0.415l0.205-0.138l1.249-1.873l0.416-0.276l0.554,0.138l0.209-0.138
			l0.485,0.208L260.64,102.446z"/>
		<path fill="#414042" d="M276.721,104.316h0.346v-0.346h-0.346V104.316z M293.209,101.755l0.97,0.691l0.554,0.901l-0.14,0.969
			l-1.107,2.011l-1.108,1.869l-0.553,0.971l-0.14,0.485h-0.138l-1.247,1.802l-0.553,0.9l-1.457,1.731l-0.554,0.902l-1.524,1.524
			l-0.831,0.902l-1.454,0.969l-1.041,0.831l-0.762,0.832l-0.416,0.138l-0.207,0.208l-0.347,0.069v0.138h-0.346v0.14h-0.278v0.207
			h-0.414l-0.693,0.346l-0.97,0.278l-0.555-0.07l-0.347,0.14l-2.286-0.14l-1.317,0.07l-0.14-0.208l-0.483-0.138l-0.14-0.208
			l-0.348-0.069l-0.138-0.346h-0.347l-0.276-0.485l-0.83-0.831l-0.485-0.9l-0.21-0.9l-0.138-2.495l0.067-2.148l0.209-1.038
			l0.276-0.484l0.07-0.486l0.21-0.347l0.622-2.286v-0.276l0.761-1.871l0.208-0.693h0.139v-0.277l0.901-1.94l0.417-1.038l0.415-0.346
			l0.209-0.971l0.763-2.008l0.691-1.871l0.831-2.078l0.831-2.288l0.279-1.038v-0.693l-1.039-1.315l-1.178-0.138l-1.11,0.207
			l-0.9,0.347l-1.941,1.109l-0.348,0.346l-0.761,0.276l-1.595,1.249l-0.14,0.484l-0.69,0.555v0.347l-0.416,0.275l-0.209,0.762
			l-0.348,0.347v0.485l-0.555,0.9l-0.693,2.008l-0.343,0.833v0.347h-0.143l-0.275,0.762l-0.348,0.347l-0.413,1.038l-0.07,0.693
			l-1.04,2.009l-0.485,1.526l-0.348,0.691l-0.623,1.871l-0.07,0.485l-0.416,0.415l-0.139,0.831l-0.138,0.071l-0.276,0.969
			l-0.902,2.08l-0.761,2.147l-0.833,2.148l-0.97,1.869l-0.347,0.416l-2.288,0.346h-1.177l-0.903-0.346l-0.553-0.762l-0.14-1.107
			l0.071-1.247l0.344-1.388l0.557-0.692v-0.277h0.138l0.555-2.078l0.067-0.278l0.209-0.137l0.414-1.109l0.555-0.971l0.415-0.9
			v-0.693l0.558-1.315l0.968-2.009l0.764-2.148l0.9-1.94l0.624-1.938l0.902-2.01l0.899-2.08l0.694-1.87h0.139l0.762-1.94l0.97-2.007
			l0.625-2.082l0.278-1.038l1.179-0.969l0.692-0.069l2.01,1.247l1.525,0.9l0.969-0.278l1.041-0.693h0.275v-0.138l1.596-1.107h0.278
			v-0.14l0.691-0.277l0.278-0.414l1.94-0.693l0.969-0.209l2.355,0.069l1.664,0.624l1.176,1.04l0.072,0.275l0.691,0.554l0.07,0.416
			l0.208,0.071l0.415,2.01v1.247l-0.554,2.285v0.624l-0.416,0.833l-0.14,0.623h-0.138l-0.555,1.871l-0.9,2.146l-0.693,1.733
			l-0.277,1.04l-0.899,1.938l-0.832,1.871l-0.763,1.733l-0.068,0.691l-0.208,0.14l-0.276,0.969l-0.693,1.524l-0.555,2.149
			l-0.208,0.069l-0.415,1.178l-0.07,1.247l0.138,1.524l0.28,0.486l1.245,0.693h0.484l1.179-0.484l0.415-0.349l0.9-0.415l0.762-0.624
			l0.763-0.416l0.069-0.415l1.663-1.385l0.97-0.692l0.277-0.694l0.416-0.344l0.277-0.835l0.484-0.415l0.139-0.416l0.415-0.275
			l0.97-1.594l1.248-1.8l0.347-0.486l0.07-0.416l0.76-0.833l1.04-1.869l0.624-0.693l0.761-0.138L293.209,101.755z"/>
	</g>
	<g>
		<path fill="#414042" d="M193.208,137.462l0.296-0.035l0.038-0.11l-0.147-0.258l-0.112-0.074l-0.148,0.222l0.037,0.185
			L193.208,137.462z M193.282,138.719l0.073-0.259l-0.257-0.369l-0.146-0.037l-0.074,0.146v0.26l0.184,0.22l0.147,0.039
			L193.282,138.719L193.282,138.719z M190.185,146.314l0.183,0.11l0.074-0.183l-0.183-0.076L190.185,146.314z M197.376,131.454
			l0.073,0.183l-0.038,0.592l-0.37,1.069l-0.221,0.515l-0.33,0.445l-0.259,0.885l-0.219,0.441l-0.186,0.59l0.038,0.147l0.368,0.333
			l1.253,0.074l0.406,0.035l0.48,0.332l0.147,0.443l-0.221,0.554l-0.516,0.479l-0.257,0.074h-0.629l-0.516-0.148h-0.849v0.074
			h-0.184v0.074H195.2v0.074h-0.186v0.109l-0.371,0.258l-0.147,0.185l-0.147,0.554l-0.256,0.59v0.148h-0.074l-0.147,0.589h-0.112
			v0.185h-0.071v0.147h-0.074v0.185h-0.074v0.148h-0.112V142h-0.074l-0.147,0.515l-0.331,1.07l-0.443,1.069l-0.551,1.107
			l-0.408,1.069l-0.443,1.106l-0.404,1.145l-0.406,1.105l-0.589,0.997l-0.186,0.441l-0.185,1.144l-0.293,0.702l-0.222,1.254
			l0.074,0.515l0.147,0.259l0.515,0.441l0.184,0.074l0.554-0.074l0.515-0.22l0.11-0.112l0.223-0.035l0.736-0.443l0.368-0.404
			l0.518-0.296l0.405-0.369l0.774-0.958l0.847-0.885l0.076-0.185l0.22-0.183v-0.111l0.702-0.996l0.074-0.147l0.366-0.258
			l0.038-0.258l0.406-0.404v-0.185h0.111v-0.147h0.074v-0.186l0.148-0.072l0.443-0.812l0.404-0.443l0.295-0.111h0.256l0.26,0.111
			l0.517,0.59l0.035,0.591l-0.109,0.258l-0.221,0.259l-0.591,1.032l-0.035,0.221h-0.074l-0.149,0.406l-0.258,0.147l-0.037,0.22
			l-0.22,0.221l-0.038,0.223l-0.739,0.995l-0.772,0.922l-0.7,0.812l-0.812,0.921l-0.664,0.478l-0.148,0.26l-0.921,0.588
			l-0.221,0.222h-0.147l-0.186,0.148l-0.773,0.221l-0.221,0.219l-0.259,0.039l-0.406,0.258L190,158.19h-1.254l-0.59-0.074
			l-0.184-0.11h-0.295l-0.665-0.183l-0.333-0.296l-0.221-0.036l-0.369-0.479l-0.479-1.07l-0.11-0.515v-0.665l0.073-0.147v-0.922
			l0.111-0.109l0.296-1.107l0.258-1.07l0.259-0.663l0.331-1.181v-0.072h0.11v-0.147h0.074l0.406-0.997l0.406-1.107l0.515-0.921
			v-0.148l0.073-0.072l0.295-1.144l0.221-0.296l0.074-0.331l0.147-0.037l0.295-0.812l0.148-0.182l0.33-1.035l0.039-0.294
			l0.404-0.959l0.148-0.441l0.185-0.148l0.036-0.223l0.26-0.552v-0.554l-0.296-0.332l-0.479-0.183h-0.886l-0.111-0.149l-0.516-0.295
			l-0.295-0.367l0.074-0.479l0.664-0.443l0.625-0.109l1.144,0.074h0.258l0.074-0.074l0.443-0.039l0.702-0.588l0.294-0.812
			l0.111-0.37l0.294-0.553l0.406-1.141l0.516-1.108l0.26-0.516l0.402-0.332l0.554-0.074l1.402,0.035l0.554,0.074l0.146,0.111
			L197.376,131.454z"/>
		<path fill="#414042" d="M207.882,151.404v0.147h0.149v-0.222l-0.111,0.037L207.882,151.404z M206.852,152.324l0.035,0.185
			l0.221,0.147l0.074-0.111v-0.479H207l-0.147,0.184L206.852,152.324L206.852,152.324z M206.37,152.472l0.074,0.037l0.111-0.222
			l-0.111-0.256l-0.074,0.035V152.472z M204.271,141.963l-0.739,0.921l-0.627,0.812l-0.036,0.186l-0.333,0.405l-0.074,0.256
			l-0.551,1.07l-0.187,0.258l-0.074,0.259l-0.33,0.479l-0.185,0.589l-0.147,0.186l-0.037,0.183l-0.112,0.075l-0.183,1.18
			l-0.184,0.22l-0.369,0.812l-0.222,1.034l-0.073,0.074l-0.148,1.216l-0.11,0.517v1.328l0.11,0.591l0.183,0.367v0.185l0.443,0.369
			l0.552,0.22l0.444,0.073l0.738-0.183l0.074-0.149l0.22-0.036l0.886-0.774l0.443-0.37l0.702-1.032l0.184-0.369l-0.295-0.922
			l-0.075-0.295l0.075-1.179l0.037-0.111l0.11-0.035l0.037-0.187l0.331-0.443l0.185-0.147l0.996-0.368l0.48-0.371l0.369-0.404
			l0.405-1.107l0.185-0.699h0.073l0.185-0.517l0.109-0.591l0.112-0.111l0.074-1.142l0.259-1.218l0.037-0.258l-0.148-1.032
			l-0.222-0.59l-0.332-0.404h-0.147l-0.074-0.149l-0.147-0.035l-0.037-0.074h-0.738l-0.551,0.146l-0.478,0.222l-0.408,0.295
			l-0.625,0.702L204.271,141.963z M208.767,151.735l0.295,0.368l0.406,0.112l0.702,0.035l0.994-0.441l0.443-0.332l0.258-0.074
			v-0.074h0.185l0.812-0.849l0.811-0.738l0.075-0.221l0.625-0.812v-0.146l0.222-0.183l0.443-0.592l0.258-0.074l0.259,0.037
			l0.514,0.333l0.258,0.369v0.148l0.074,0.073v0.295l-0.295,0.626l-0.185,0.184l-0.11,0.26l-0.37,0.441v0.148l-0.81,0.849
			l-0.737,0.921l-0.922,0.738l-1.033,0.664l-0.221,0.146l-1.181,0.26l-0.442,0.183l-1.255,0.11l-0.552-0.073l-0.664-0.185
			l-0.554,0.222l-0.736,0.922l-0.885,0.958l-0.222,0.186l-0.222,0.074l-0.184,0.257l-0.22,0.037l-0.922,0.664h-0.148l-0.258,0.183
			l-0.92,0.26l-0.517,0.22l-1.143-0.074l-0.59,0.074l-0.073-0.074h-0.443l-0.074-0.074h-0.261l-0.143-0.184l-0.26-0.035
			l-0.997-0.701l-0.219-0.221l-0.113-0.295l-0.219-0.148l-0.11-0.406l-0.187-0.185l-0.074-0.515l-0.218-0.48l-0.113-1.07
			l-0.073-1.179l0.221-0.847l0.148-1.108l0.109-1.141l0.443-1.034l0.334-1.107l0.404-1.107l0.148-0.589h0.109l0.149-0.589h0.074
			v-0.186h0.11v-0.148l0.295-0.552l0.331-0.443l0.149-0.369l0.222-0.221v-0.185l0.11-0.036l0.257-0.405l0.037-0.222l0.111-0.038
			l0.148-0.294l0.221-0.184l0.627-0.812l0.812-0.886l0.294-0.33l0.221-0.037l0.408-0.333h0.074l0.109-0.184h0.147v-0.074
			l0.258-0.035l0.333-0.296l0.219-0.038l0.738-0.441h0.147l0.074-0.11l1.218-0.222l1.142,0.074l0.517,0.183l0.884,0.149l0.444,0.296
			l0.848,0.884l0.332,0.479l0.48,1.105l0.146,0.519v1.214l-0.073,1.145v0.59l-0.294,1.142l-0.074,0.037l-0.148,0.589v0.444
			l-0.442,0.848l-0.074,0.037v0.627l-0.073,0.406l-0.111,0.185l-0.258,0.221l-0.074,0.258l-0.256,0.406l-0.074,0.589l-0.408,1.106
			v0.148L208.767,151.735L208.767,151.735z"/>
	</g>
	<g>
		<polygon fill="#414042" points="177.515,190.42 182.837,190.42 186.867,210.042 186.952,210.042 191.067,190.42 196.596,190.42 
			200.751,210.042 200.835,210.042 204.827,190.42 210.189,190.42 203.621,220.436 198.091,220.436 193.893,199.899 
			193.811,199.899 189.28,220.436 183.793,220.436 		"/>
		<rect x="214.095" y="190.422" fill="#414042" width="5.737" height="30.014"/>
		<polygon fill="#414042" points="242.693,190.421 242.693,195.494 236,195.494 236,220.436 230.263,220.436 230.263,195.494 
			223.57,195.494 223.57,190.42 		"/>
		<polygon fill="#414042" points="246.433,220.435 246.433,190.421 252.17,190.421 252.17,202.394 260.279,202.394 260.279,190.421 
			266.019,190.421 266.019,220.435 260.279,220.435 260.279,207.466 252.17,207.466 252.17,220.435 		"/>
		<path fill="#414042" d="M353.449,198.698h0.417l0.248-0.148l0.333-0.518l-0.252-0.147h-0.746L353.449,198.698L353.449,198.698z
			 M333.497,199.734v-0.295l-0.25-0.225h-0.331l0.082,0.299l0.334,0.221L333.497,199.734L333.497,199.734z M332.75,253.684
			l-0.914-0.52l-0.251,0.298l0.499,0.443l0.417,0.666l0.249-0.221l-0.249-0.148l0.249-0.37L332.75,253.684L332.75,253.684z
			 M330.836,201.879v0.518l0.748-0.073l0.251-0.148v-0.297l-0.251-0.147l-0.665,0.073L330.836,201.879z M330.671,197.663
			l0.082,0.295l0.581,0.074l0.333-0.147l0.168-0.369l-1.082,0.074L330.671,197.663z M330.338,199.214l0.83,0.373l0.25-0.074
			l0.084-0.221l-0.25-0.373h-0.665l-0.166,0.147L330.338,199.214z M327.678,212.608h0.333l0.249-0.37l-0.582-0.149V212.608z
			 M322.94,221.116l0.996-0.295l0.085-0.442l0.497-0.445l0.165-0.442l-0.662,0.221l-0.831,0.813l-0.169,0.443L322.94,221.116z
			 M311.881,198.327H311.3l0.084,0.223l0.249,0.074l0.248-0.147L311.881,198.327L311.881,198.327z M309.969,199.365l0.75,0.074
			l0.581,0.961l-0.581,0.221l-0.166,0.224l0.332,0.146l0.996-0.517l-0.914-1.407l-0.497-0.221l-0.416,0.297L309.969,199.365z
			 M310.885,202.545h-0.747v0.149l-0.75,0.444v0.222l0.581,0.294l1.331-0.294v-0.369l-0.333-0.297L310.885,202.545z
			 M309.639,208.761l-0.085-0.592l-0.166-0.222h-0.499v0.592l0.499,0.222H309.639z M308.476,204.913l0.33-0.072l0.582-0.446v-0.443
			l-0.165-0.074l-0.747,0.886L308.476,204.913L308.476,204.913z M317.702,196.034l0.084-0.222h0.415l1.744-1.037l0.334-0.149
			l0.416-0.442l1.081-0.37l1.164-0.592l1.497-0.371v-0.223l2.66-0.147l2.743,0.074l1.412,0.297V193h0.415v0.149H332v0.22h0.416
			l0.085,0.223l0.664,0.223l0.332,0.517l0.582,0.37l0.997,1.628l0.498,0.963l0.998,0.444l1.082-0.741l0.747-0.296l0.167-0.371
			l0.498-0.074l1.497-0.887l0.085-0.222l1.744-0.962l0.747-0.148l0.499-0.444l0.583-0.074l0.415-0.369l2.327-0.52l2.661-0.147
			l2.744,0.445l0.996,0.073l0.83,0.369v0.149h0.418l0.166,0.296l0.416,0.222v0.295l0.497,0.37l0.917,1.628l0.497,2.294l-0.082,1.406
			l-0.166,0.147l-0.168,1.184h-0.25l-0.332,2.368l-0.33,0.666l-0.086,0.518l-0.331,0.371l-0.084,0.739l-0.664,0.888l-0.664,1.925
			l-0.335,0.22v0.52l-0.249,0.222l-0.165,0.518l-0.497,0.443l-0.751,2.072l-0.581,1.628h-0.165l-0.084,0.813l-1.082,1.405
			l-1.663,4.439l-0.247,0.446v0.37l-0.416,0.519l-0.831,2.072l-0.334,0.296l-1.082,2.442l-0.081,0.595l-0.665,1.183l-0.415,1.258
			l-0.416,0.592v0.52h-0.168l-1.329,2.072l-0.581,1.775l-0.251,0.298l-0.081,0.888l-0.25,0.294l-0.416,1.188l-1.165,2.071
			l-0.998,2.293l-0.416,0.444l-0.58,2.218l-0.748,0.963l-0.914,2.22l-0.25,1.035l-0.666,0.963l-0.248,1.034l-0.168,0.148
			l-0.165,1.481l0.165,1.184l0.584,1.407l1.662,1.551l0.914,0.889l0.083,0.445l0.331,0.442l-0.165,1.186l-0.83,1.998l-0.501,0.665
			v0.222l-1.412,0.963l-1.247-0.147l-1.163-0.372l-0.334-0.517l-1.495-1.185l-0.25-0.518l-0.831-0.813l-0.665-1.185l-0.332-0.147
			v-0.37l-0.584-0.296v-0.371l-0.248-0.147l-0.332-0.518l-0.25-2.294l-0.167-2.44l0.417-2.369l0.58-2.294l1-2.218l0.165-0.076
			l0.082-0.444l0.502-0.738l0.83-2.146l0.914-2.146l0.251-0.221l0.081-0.518l0.332-0.518l0.334-1.037l0.249-0.296l0.167-0.962
			l1.247-2l0.331-1.182l1.082-2.222l0.249-0.224l0.249-1.035l0.248-0.444h0.168l0.416-1.037l0.581-0.887l0.25-1.112l0.748-1.555
			l0.831-1.925l0.166-1.035l0.581-0.668l0.084-0.442l0.747-1.183l0.917-2.294l0.499-0.742v-0.369h0.165v-0.295h0.248l0.084-0.444
			l0.333-0.149l0.082-0.444h0.251v-0.295h0.164v-0.369h0.168l0.333-2.368l0.912-1.777l0.667-0.889l0.334-1.626l0.58-0.666
			l0.913-2.294l0.834-2.072l0.165-0.295l-0.083-1.333l-0.5-1.035l-0.497-0.442l-1.166-0.225l-2.824,0.147l-1.333,0.225l-2.242,1.109
			l-0.582,0.297l-0.416,0.444l-2.161,1.33l-1.581,1.407h-0.33l-1.831,1.776l-0.747,2.293l-0.83,1.85l-0.417,0.295l-0.332,1.037
			l-0.333,0.445l-0.082,0.444l-0.916,1.626l-0.747,2.147l-0.416,0.738l-0.168,0.815l-0.497,0.444l-0.749,2.219l-0.249,0.813
			l-0.415,0.372l-0.415,1.036l-0.416,0.369l-0.334,1.26l-0.912,1.999v0.517l-0.917,1.629l-0.912,2.22l-0.914,2.295l-1.082,2.073
			l-0.831,1.998l-0.168,0.149l-0.248,0.89l-0.415,0.443l-0.084,1.037l-0.248,0.147l-0.168,0.888l-1.248,1.997l-1.079,2.22
			l-0.749,2.22l-0.416,1.112l-1.081,1.553l-0.498,0.074v0.149l-2.493,0.369l-0.501,0.148l-1.661-0.074l-1.247-0.369l-0.416-0.297
			l-0.167-0.963l1.082-2.292l0.831-2.221l0.997-1.85l0.832-2.218l0.83-1.924l0.416-0.816l0.085-0.593l0.831-1.258l0.581-1.554
			l0.333-1.185l0.249-0.148l0.416-1.112l0.334-0.369l0.083-0.519l0.331-0.517l0.249-0.147l0.5-1.111l0.249-1.111l0.665-1.48
			l0.998-2.074l0.832-1.999l0.913-2.145l1.247-2.072l0.916-2.294l0.914-2.147l0.332-0.665v-0.37l0.496-0.444l0.169-0.888
			l0.331-0.296l0.916-2.221l0.165-0.59l0.415-0.371l0.749-2.219l0.665-1.407l0.499-1.258l0.082-1.256l-0.249-1.037l-0.332-0.518
			l-0.831-0.74l-1.246-0.149l-2.744,0.446l-1.163,0.369l-1.663,1.035h-0.333l-2.078,1.258l-2.077,1.481l-1.831,1.702l-0.415,0.443
			v0.297h-0.249l-0.083,0.443l-0.998,1.776v0.222l-0.664,0.739l-0.749,1.481l-0.082,0.591l-0.251,0.149l-0.165,1.184l-1.332,1.85
			l-0.747,2.292l-0.748,1.999l-0.664,1.037l-0.749,2.293l-0.084,0.592l-0.749,1.481l-0.415,0.295v0.518l-1.08,2l-0.167,0.519
			l-0.415,0.37l-0.832,2.221l-0.082,0.296l-0.249,0.147l-0.832,2.222l-0.332,0.668v0.295l-0.415,0.443l-0.831,2.074l-0.169,0.517
			l-0.497,0.445l-0.5,0.815l0.084,0.295l-0.581,1.924l-0.249,0.222l-0.168,0.666l-0.249,0.296l-0.498,1.702h-0.167v0.298h-0.25
			l-0.082,0.737l-0.416,0.297v0.295h-0.248v0.369h-0.168l-0.249,1.187l-0.331,0.516l-0.501,1.628l-0.416,0.148l-0.083,0.444
			l-0.831,0.741l-2.495,0.369l-2.824-0.073h-0.335l-0.746-0.444l-0.166-0.297l0.332-1.553l0.666-1.998l0.664-1.183v-0.52
			l0.915-1.775l0.084-0.369l0.247-0.222l0.833-1.702l0.582-1.11l0.249-1.186l0.416-1.11l0.249-0.074l0.332-1.111l0.582-0.74
			l0.084-0.519l0.331-0.592l0.166-0.888l1.081-1.999l0.915-2.221l0.833-1.629l0.497-0.37l0.083-0.443h0.167l0.332-1.556l1.163-2.147
			l0.916-2.22l0.997-2.145l0.331-1.186l0.998-1.998l0.416-1.184l0.915-1.553l0.998-2.146l0.914-2.292l0.082-0.519l0.25-0.147
			l0.998-1.85l1.247-3.552l0.166-0.146l0.082-0.889l-0.746-0.592l-1.081,0.147l-2.827,1.109l-1.746,0.446l-0.831,0.517L298,202.324
			l-0.251,0.221l-2.41,0.815l-2.495,0.96l-2.492,0.815l-1.082,0.74h-0.332v0.221l-2.161,0.962l-0.331,0.37h-0.334v0.149
			l-0.832,0.369l-0.166,0.295h-0.333l-1.329,1.186l-0.166,0.517l-0.748,0.519l-0.915,1.258l-0.416,1.182h-0.248v0.37h-0.168
			l-0.582,2.293l-0.166,1.11l0.166,1.186l0.998,2.219l0.582,0.961l0.997,0.889l1.165,0.666l1.663,0.445l0.832,0.888l0.414,0.222
			v0.517l0.166,0.148l0.082,2.295l-0.165,0.594l-1.247,1.186l-1.163-0.076l-1.662-0.444l-0.167-0.222l-2.412-0.443l-0.249-0.37
			l-1.661-0.815l-1.497-1.852l-0.25-0.517l-0.331-0.147l-0.666-1.038l-0.251-0.148l-0.331-0.887l-0.5-0.295l-0.499-2.37
			l-0.249-2.219l0.081-2.663l0.334-1.035l0.333-0.446l0.5-2.071l0.082-0.592l0.5-0.886l1.827-1.852l0.251-0.516l0.498-0.371
			l1.746-1.851l0.748-0.665l0.499-0.074l1.994-1.186l0.833-0.443l0.166-0.37h0.333l0.914-0.59l1.579-0.741l0.583-0.074l0.332-0.444
			l1.746-0.443v-0.147l2.327-0.889l2.409-1.108l1.83-0.52l2.493-0.887l0.749-0.37l2.66-0.594l0.831-0.518l0.998-0.222l1.165-0.59
			l2.493-0.889l2.16-0.739l1.248,0.147l0.998,0.666l0.914,0.963v0.295h0.25l0.581,1.111l0.999,1.257l0.664,0.296l0.665,0.074
			l1.33-0.887L317.702,196.034z"/>
		<path fill="#414042" d="M363.689,217.837l-0.14,0.207l-0.969,0.21l-0.139,0.209h-0.276l-0.139,0.347l-0.416,0.068l-1.523,1.661
			l-0.623,0.764l-0.071,0.415l-0.692,0.901l-0.415,0.832l-0.556,0.693v0.278l-0.761,1.108l-0.07,0.415l-0.969,1.664l-0.831,2.01
			l-0.139,0.832l0.763,0.833l1.176,0.138l2.286-0.277l0.833-0.138l1.8-1.316l1.731-1.318l0.624-0.902l0.138-0.554l1.248-1.941
			l0.763-2.009l0.9-2.287l0.14-1.04l-0.209-0.276v-0.277l-0.899-1.386l-2.218,0.069l-0.277,0.069h-0.07L363.689,217.837
			L363.689,217.837z M364.173,212.364l0.207-0.139l2.219-0.069l0.763,0.069l0.138,0.139h0.484l1.939,0.833l1.038,0.763v0.276
			l1.18,1.664l0.484,1.038l0.209,2.011l-0.209,2.285l-0.276,2.149l-0.624,1.663l-0.553,0.901l-0.902,1.94l-0.139,0.487l-1.455,1.733
			l-0.692,0.832l-0.415,0.208l-0.763,0.832l-1.107,0.694l-0.415,0.069v0.208l-0.486,0.069l-0.554,0.484l-0.348,0.07v0.138
			l-1.385,0.486l-0.415,0.208l-2.286,0.278l-2.425,0.208h-2.355l-0.9,0.208l-0.694,0.417l-0.623,0.901l-0.208,1.385l-0.207,0.14
			l-0.14,0.901l0.069,2.422l0.208,1.111l0.416,1.04l0.694,0.9l0.832,0.693l0.483,0.138l0.139,0.278l0.483,0.069l0.348,0.206
			l2.425,0.209l1.94-0.347l0.97-0.277l0.206-0.208l1.178-0.346l0.277-0.347l0.484-0.137l0.763-0.625l1.732-0.831l0.9-0.484
			l1.524-1.595l1.593-1.523l1.526-1.662l1.385-1.732l1.453-1.665l0.209-0.14l0.068-0.416l0.278-0.138v-0.347l0.347-0.138l0.415-1.04
			l1.039-1.385h1.178l0.555,0.207l0.692,0.832l0.207,0.485v0.555l-0.416,0.97l-0.414,0.416l-0.069,0.485l-0.691,0.901l-0.141,0.486
			l-0.484,0.347l-0.069,0.278l-0.833,0.9l-0.207,0.694l-0.623,0.9l-1.455,1.593l-1.593,1.665l-0.898,0.623l-0.765,0.901
			l-0.763,1.107h-0.346l-0.139,0.277l-1.108,0.484l-0.138,0.347l-0.417,0.069l-1.453,1.317l-1.039,0.416l-0.21,0.209h-0.347
			l-0.347,0.415l-0.691,0.138l-0.209,0.208l-1.384,0.484l-1.039,0.138l-0.623,0.277l-2.149,0.347l-2.355,0.068l-2.287-0.277
			l-2.009-0.691l-1.938-0.902l-1.247-1.107v-0.348l-0.346-0.137v-0.347l-0.28-0.139l-0.831-1.8l-0.206-2.355l-0.139-2.079
			l0.069-2.355l0.415-3.328l0.347-0.761l0.486-2.288l0.069-0.347l0.206-0.069l0.556-2.08l0.275-0.276v-0.278l0.347-0.347
			l0.556-0.969V226.5h0.138l0.138-0.832l0.347-0.416l0.416-0.969l0.347-0.417l0.068-0.348h0.138v-0.346h0.14v-0.278l1.247-1.801
			l0.484-0.555l0.069-0.414l0.417-0.416v-0.278l0.416-0.347l0.069-0.207l0.762-0.764l0.208-0.486l1.73-1.522l1.317-1.315
			l0.483-0.069l0.902-0.625l0.692-0.277l0.277-0.345l0.484-0.139l0.348-0.346l2.077-0.485l0.416-0.14L364.173,212.364
			L364.173,212.364z"/>
	</g>
</g>
<g>
	<polygon fill="#25A69A" points="369.399,186.641 435.568,221.513 435.568,229.722 369.399,264.599 369.399,256.1 426.914,225.619 
		369.399,195.137 	"/>
	<polygon fill="#25A69A" points="109.81,142.38 43.643,107.504 43.643,99.3 109.81,64.427 109.81,72.924 52.294,103.402 
		109.81,133.88 	"/>
</g>
<polygon fill="#EF4438" points="346.516,183.279 346.516,125.866 376.576,125.866 376.576,135.566 357.49,135.566 357.49,148.768 
	372.043,148.768 372.043,158.468 357.49,158.468 357.49,173.577 377.371,173.577 377.371,183.279 "/>
<g>
	<path fill="#EF4438" d="M237.721,166.263c0,6.361,2.782,8.11,7.157,8.11c4.373,0,7.155-1.749,7.155-8.11v-3.817h10.981v2.386
		c0,14.154-7.479,19.243-18.136,19.243s-18.13-5.088-18.13-19.243v-20.518c0-14.154,7.473-19.244,18.13-19.244
		c10.656,0,18.136,5.089,18.136,19.244v0.159h-10.981v-1.59c0-6.361-2.782-8.111-7.155-8.111c-4.375,0-7.157,1.75-7.157,8.111
		L237.721,166.263L237.721,166.263z"/>
	<path fill="#EF4438" d="M277.333,166.263c0,6.361,2.783,8.11,7.155,8.11c4.376,0,7.16-1.749,7.16-8.11v-23.38
		c0-6.361-2.784-8.111-7.16-8.111c-4.372,0-7.155,1.75-7.155,8.111V166.263z M266.354,144.313c0-14.154,7.48-19.244,18.135-19.244
		c10.657,0,18.132,5.089,18.132,19.244v20.518c0,14.152-7.475,19.243-18.132,19.243c-10.654,0-18.135-5.09-18.135-19.243V144.313z"
		/>
	<path fill="#EF4438" d="M317.888,173.577h3.819c6.042,0,9.541-2.863,9.541-11.451v-15.109c0-8.111-2.705-11.452-9.541-11.452
		h-3.819L317.888,173.577L317.888,173.577z M306.916,125.864h15.268c12.565,0,19.562,5.409,20.039,19.88V163.4
		c-0.477,14.472-7.474,19.879-20.039,19.879h-15.268V125.864z"/>
</g>
</svg>
