<svg id="Layer_1" data-name="Layer 1" xmlns="http://www.w3.org/2000/svg" viewBox="0 0 260.09 55.44"><defs><style>.cls-1{fill:#f48120;fill-rule:evenodd;}.cls-2{fill:#231f20;}</style></defs><title>SPLOGOREPL</title><path class="cls-1" d="M37.61,41.6h4.47a12,12,0,0,0,3.51-.5,8.61,8.61,0,0,0,2.87-1.46,6.88,6.88,0,0,0,1.93-2.41,7.53,7.53,0,0,0,.71-3.35,7.83,7.83,0,0,0-.6-3.12,6.75,6.75,0,0,0-1.71-2.38,7.57,7.57,0,0,0-2.7-1.53,11.2,11.2,0,0,0-3.56-.53H33.65q0,17.53,0,35V65.3h24.7V9.86H2.91V65.3h29V61.35h-25V13.8H54.4V61.35H37.63c0-6.6,0-13.18,0-19.75h0ZM42.21,38h-4.6V29.92h4.6a5.67,5.67,0,0,1,3.54,1,3.6,3.6,0,0,1,1.32,3,3.68,3.68,0,0,1-1.3,2.95A5.31,5.31,0,0,1,42.21,38Z" transform="translate(-2.91 -9.86)"/><path class="cls-1" d="M29,42.41a6,6,0,0,0-.47-2.46,5.28,5.28,0,0,0-1.37-1.83,7.83,7.83,0,0,0-2.27-1.34,25.31,25.31,0,0,0-3.14-1q-1.61-.39-2.66-0.74a6.54,6.54,0,0,1-1.64-.77,2.37,2.37,0,0,1-.82-0.9,2.72,2.72,0,0,1-.23-1.16,2.39,2.39,0,0,1,1-1.92,4.16,4.16,0,0,1,2.7-.79,8.29,8.29,0,0,1,3.06.6,13.81,13.81,0,0,1,3.06,1.72l2.12-3a13.26,13.26,0,0,0-3.72-2.11A12.91,12.91,0,0,0,20.13,26a9.82,9.82,0,0,0-3.09.47,7.1,7.1,0,0,0-2.43,1.34A6.29,6.29,0,0,0,13,29.87a6.13,6.13,0,0,0-.58,2.69,6.42,6.42,0,0,0,.5,2.67,5.11,5.11,0,0,0,1.45,1.87,8.15,8.15,0,0,0,2.35,1.29,27.08,27.08,0,0,0,3.2.93,26.06,26.06,0,0,1,2.56.74,6.47,6.47,0,0,1,1.55.76,2.19,2.19,0,0,1,.77.89A2.73,2.73,0,0,1,25,42.79a2.44,2.44,0,0,1-1.08,2.09,4.91,4.91,0,0,1-2.91.77,9.13,9.13,0,0,1-3.8-.76,13.84,13.84,0,0,1-3.32-2.17l-2.38,2.83a13.62,13.62,0,0,0,4.41,2.72,14.21,14.21,0,0,0,5,.89,11.12,11.12,0,0,0,3.25-.45,7.34,7.34,0,0,0,2.54-1.32,6.07,6.07,0,0,0,1.66-2.12A6.61,6.61,0,0,0,29,42.41Z" transform="translate(-2.91 -9.86)"/><path class="cls-1" d="M37.61,43.35q0-.87,0-1.74h4.47a12,12,0,0,0,3.51-.5,8.61,8.61,0,0,0,2.87-1.46,6.88,6.88,0,0,0,1.93-2.41,7.53,7.53,0,0,0,.71-3.35,7.83,7.83,0,0,0-.6-3.12,6.75,6.75,0,0,0-1.71-2.38,7.56,7.56,0,0,0-2.7-1.53,11.2,11.2,0,0,0-3.56-.53H33.65v39h24.7V9.86H2.91V65.3h29V61.35h-25V13.8H54.4V61.35H37.63c0-6,0-12,0-18h0ZM42.21,38h-4.6V29.92h4.6a5.67,5.67,0,0,1,3.54,1,3.6,3.6,0,0,1,1.32,3,3.68,3.68,0,0,1-1.3,2.95A5.31,5.31,0,0,1,42.21,38Z" transform="translate(-2.91 -9.86)"/><path class="cls-1" d="M37.61,43.35q0-.87,0-1.74h4.47a12,12,0,0,0,3.51-.5,8.61,8.61,0,0,0,2.87-1.46,6.88,6.88,0,0,0,1.93-2.41,7.53,7.53,0,0,0,.71-3.35,7.83,7.83,0,0,0-.6-3.12,6.75,6.75,0,0,0-1.71-2.38,7.56,7.56,0,0,0-2.7-1.53,11.2,11.2,0,0,0-3.56-.53H33.65v0.4q0,8.37,0,16.73V65.3h24.7V9.86H2.91V65.3h29V61.35h-25V13.8H54.4V61.35H37.63c0-6,0-12,0-18h0Zm0-5.32V29.92h4.6a5.67,5.67,0,0,1,3.54,1,3.6,3.6,0,0,1,1.32,3,3.68,3.68,0,0,1-1.3,2.95A5.31,5.31,0,0,1,42.21,38h-4.6Z" transform="translate(-2.91 -9.86)"/><path class="cls-1" d="M28.52,39.95a5.28,5.28,0,0,0-1.37-1.83,7.83,7.83,0,0,0-2.27-1.34,25.3,25.3,0,0,0-3.14-1q-1.61-.39-2.66-0.74a6.54,6.54,0,0,1-1.64-.77,2.37,2.37,0,0,1-.82-0.9,2.72,2.72,0,0,1-.23-1.16,2.39,2.39,0,0,1,1-1.92,4.16,4.16,0,0,1,2.7-.79,8.29,8.29,0,0,1,3.06.6,13.81,13.81,0,0,1,3.06,1.72l2.12-3a13.26,13.26,0,0,0-3.72-2.11A12.91,12.91,0,0,0,20.13,26a9.82,9.82,0,0,0-3.09.47,7.1,7.1,0,0,0-2.43,1.34A6.29,6.29,0,0,0,13,29.87a6.13,6.13,0,0,0-.58,2.69,6.42,6.42,0,0,0,.5,2.67,5.11,5.11,0,0,0,1.45,1.87,8.15,8.15,0,0,0,2.35,1.29,27.06,27.06,0,0,0,3.2.93,26.06,26.06,0,0,1,2.56.74,6.47,6.47,0,0,1,1.55.76,2.19,2.19,0,0,1,.77.89A2.73,2.73,0,0,1,25,42.79a2.44,2.44,0,0,1-1.08,2.09,4.91,4.91,0,0,1-2.91.77,9.13,9.13,0,0,1-3.8-.76,13.84,13.84,0,0,1-3.32-2.17l-2.38,2.83a13.62,13.62,0,0,0,4.41,2.72,14.21,14.21,0,0,0,5,.89,11.13,11.13,0,0,0,3.25-.45,7.34,7.34,0,0,0,2.54-1.32,6.07,6.07,0,0,0,1.66-2.12,6.61,6.61,0,0,0,.6-2.86A6,6,0,0,0,28.52,39.95Z" transform="translate(-2.91 -9.86)"/><path class="cls-2" d="M70.43,19.15a1.93,1.93,0,0,1,.78-1.54A3.35,3.35,0,0,1,73.39,17a6.67,6.67,0,0,1,2.46.48,11.13,11.13,0,0,1,2.46,1.39L80,16.43a10.68,10.68,0,0,0-3-1.7,10.39,10.39,0,0,0-3.59-.58,7.91,7.91,0,0,0-2.49.38,5.72,5.72,0,0,0-2,1.08,5.06,5.06,0,0,0-1.28,1.67,4.93,4.93,0,0,0-.47,2.16,5.17,5.17,0,0,0,.4,2.15,4.12,4.12,0,0,0,1.17,1.5,6.56,6.56,0,0,0,1.89,1,21.79,21.79,0,0,0,2.58.75,20.94,20.94,0,0,1,2.06.6,5.21,5.21,0,0,1,1.24.61,1.76,1.76,0,0,1,.62.71,2.19,2.19,0,0,1,.17.88,2,2,0,0,1-.87,1.68,4,4,0,0,1-2.34.62,7.34,7.34,0,0,1-3.06-.61,11.13,11.13,0,0,1-2.67-1.75L66.52,29.9a11,11,0,0,0,3.55,2.19,11.43,11.43,0,0,0,4,.71,9,9,0,0,0,2.62-.36,5.91,5.91,0,0,0,2-1.06,4.89,4.89,0,0,0,1.33-1.71,5.32,5.32,0,0,0,.48-2.31,4.83,4.83,0,0,0-.38-2,4.24,4.24,0,0,0-1.1-1.48,6.29,6.29,0,0,0-1.83-1.08,20.31,20.31,0,0,0-2.53-.8q-1.3-.31-2.14-0.6a5.26,5.26,0,0,1-1.32-.62,1.91,1.91,0,0,1-.66-0.73,2.19,2.19,0,0,1-.18-0.93h0ZM84.5,14.41V32.54h3.19V14.41H84.5Zm22.67,5.13v13h3.19V14.41H107L101.44,23l-5.52-8.57H92.53V32.54h3.13v-13l5.67,8.5h0.1l5.72-8.55h0Zm21.89,1a6.3,6.3,0,0,0-.48-2.51,5.43,5.43,0,0,0-1.37-1.92A6.09,6.09,0,0,0,125,14.84a9,9,0,0,0-2.86-.43H115V32.54h3.19V26.71h3.6a9.67,9.67,0,0,0,2.82-.4,6.93,6.93,0,0,0,2.31-1.18,5.53,5.53,0,0,0,1.55-1.94,6.06,6.06,0,0,0,.57-2.69h0Zm-3.24.08a3,3,0,0,1-1,2.37,4.27,4.27,0,0,1-2.86.89h-3.7V17.31h3.7a4.56,4.56,0,0,1,2.85.82,2.89,2.89,0,0,1,1.06,2.45h0Zm6.5,12H145v-2.9H135.5V14.41h-3.19V32.54h0ZM161.8,14.41H148.35V32.54h13.57V29.69H151.54V24.82h9.09V22h-9.09V17.26H161.8V14.41h0Zm-80,34.24a6.3,6.3,0,0,0-.48-2.51,5.43,5.43,0,0,0-1.37-1.92A6.08,6.08,0,0,0,77.75,43a9,9,0,0,0-2.86-.43H67.74V60.7h3.19V54.87h3.6a9.67,9.67,0,0,0,2.82-.4,6.93,6.93,0,0,0,2.31-1.18,5.53,5.53,0,0,0,1.55-1.94,6.06,6.06,0,0,0,.57-2.69h0Zm-3.24.08a3,3,0,0,1-1,2.37,4.27,4.27,0,0,1-2.86.89h-3.7V45.47h3.7a4.56,4.56,0,0,1,2.85.82,2.89,2.89,0,0,1,1.06,2.45h0Zm21.89,12-4.9-6.86a6.74,6.74,0,0,0,1.75-.74,5.37,5.37,0,0,0,1.36-1.17,5.24,5.24,0,0,0,.89-1.58,6.46,6.46,0,0,0-.14-4.43,4.91,4.91,0,0,0-1.33-1.81A6.1,6.1,0,0,0,95.94,43a9.22,9.22,0,0,0-2.81-.4H85V60.7h3.19V54.38h4l4.46,6.32h3.76ZM96.62,48.5a2.73,2.73,0,0,1-1,2.23,4.16,4.16,0,0,1-2.72.83H88.23V45.47h4.64a4.43,4.43,0,0,1,2.77.76,2.69,2.69,0,0,1,1,2.27h0Zm25.31,3.11a9.48,9.48,0,0,0-.7-3.63,9,9,0,0,0-4.92-5,9.7,9.7,0,0,0-3.83-.74A9.45,9.45,0,0,0,105.64,45a9.11,9.11,0,0,0-2,3,9.75,9.75,0,0,0,0,7.25,9,9,0,0,0,4.92,5,9.7,9.7,0,0,0,3.83.74,9.45,9.45,0,0,0,6.84-2.78,9.11,9.11,0,0,0,2-3,9.48,9.48,0,0,0,.7-3.63h0Zm-3.34.05a6.9,6.9,0,0,1-.45,2.5,6.32,6.32,0,0,1-1.26,2,5.87,5.87,0,0,1-1.93,1.37A6.09,6.09,0,0,1,108,56.17a6.35,6.35,0,0,1-1.27-2.06,7.12,7.12,0,0,1,0-5,6.32,6.32,0,0,1,1.26-2,5.87,5.87,0,0,1,1.93-1.37,6.27,6.27,0,0,1,5,0,6,6,0,0,1,2,1.4,6.35,6.35,0,0,1,1.27,2.06,6.9,6.9,0,0,1,.45,2.5h0ZM142,58.19V50.57h-7.72v2.77h4.64v3.39a6.84,6.84,0,0,1-2,1,7.62,7.62,0,0,1-2.42.38,6.25,6.25,0,0,1-2.53-.49A5.85,5.85,0,0,1,130,56.26a6,6,0,0,1-1.26-2.06,7.41,7.41,0,0,1-.44-2.59,6.8,6.8,0,0,1,.45-2.49,6.64,6.64,0,0,1,1.24-2,5.79,5.79,0,0,1,1.87-1.39,5.39,5.39,0,0,1,2.32-.51,8,8,0,0,1,1.57.14,7.06,7.06,0,0,1,1.31.39,6.58,6.58,0,0,1,1.14.61,11.46,11.46,0,0,1,1.06.8l2-2.41a11.52,11.52,0,0,0-1.44-1,9.09,9.09,0,0,0-1.57-.76,10,10,0,0,0-1.8-.48,12.75,12.75,0,0,0-2.16-.17,9.33,9.33,0,0,0-3.77.75,9.08,9.08,0,0,0-4.9,5,9.64,9.64,0,0,0-.69,3.63,10,10,0,0,0,.67,3.7,8.62,8.62,0,0,0,4.87,4.93,10.08,10.08,0,0,0,3.86.71,11.46,11.46,0,0,0,2.28-.22,11.16,11.16,0,0,0,2-.61,11.28,11.28,0,0,0,1.76-.91A13.51,13.51,0,0,0,142,58.19h0Zm19.53,2.51-4.9-6.86a6.74,6.74,0,0,0,1.75-.74,5.37,5.37,0,0,0,1.36-1.17,5.25,5.25,0,0,0,.89-1.58,6.46,6.46,0,0,0-.14-4.43,4.91,4.91,0,0,0-1.33-1.81A6.1,6.1,0,0,0,157,43a9.22,9.22,0,0,0-2.81-.4H146.1V60.7h3.19V54.38h4l4.46,6.32h3.76Zm-3.81-12.2a2.73,2.73,0,0,1-1,2.23,4.16,4.16,0,0,1-2.72.83h-4.66V45.47h4.64a4.43,4.43,0,0,1,2.77.76,2.69,2.69,0,0,1,1,2.27h0Zm16.53-6.06h-3l-8,18.26h3.26l1.86-4.38H177l1.84,4.38h3.37l-8-18.26h0Zm1.61,11.06h-6.24l3.11-7.25,3.13,7.25h0Zm24.12-5.8v13h3.19V42.57h-3.39l-5.52,8.57-5.52-8.57h-3.39V60.7h3.13v-13l5.67,8.5h0.1l5.72-8.55h0Zm22.48,0v13h3.19V42.57H222.2l-5.52,8.57-5.52-8.57h-3.39V60.7h3.13v-13l5.67,8.5h0.1l5.72-8.55h0Zm21.29-5.13H230.26V60.7h13.57V57.85H233.44V53h9.09V50.13h-9.09V45.42H243.7V42.57h0ZM263,60.7l-4.9-6.86a6.74,6.74,0,0,0,1.75-.74,5.37,5.37,0,0,0,1.36-1.17,5.25,5.25,0,0,0,.89-1.58,6.46,6.46,0,0,0-.14-4.43,4.91,4.91,0,0,0-1.33-1.81A6.1,6.1,0,0,0,258.51,43a9.22,9.22,0,0,0-2.81-.4h-8.08V60.7h3.19V54.38h4l4.46,6.32H263Zm-3.81-12.2a2.73,2.73,0,0,1-1,2.23,4.16,4.16,0,0,1-2.72.83H250.8V45.47h4.64a4.43,4.43,0,0,1,2.77.76A2.69,2.69,0,0,1,259.19,48.5Z" transform="translate(-2.91 -9.86)"/></svg>